<svg width="206" height="128" viewBox="0 0 206 128" fill="none" xmlns="http://www.w3.org/2000/svg">
<g filter="url(#filter0_d_616_326)">
<rect x="0.882353" y="50.2941" width="196.706" height="68.8235" rx="34.4118" fill="#FFC900"/>
<rect x="0.882353" y="50.2941" width="196.706" height="68.8235" rx="34.4118" stroke="black" stroke-width="1.76471"/>
<path d="M30.7431 99.0763C29.6494 97.9513 29.1025 96.5411 29.1025 94.8458C29.1025 93.1505 29.6494 91.7403 30.7431 90.6153C31.8447 89.4825 33.247 88.9161 34.9501 88.9161C36.6533 88.9161 38.0556 89.4825 39.1572 90.6153C40.2587 91.7403 40.8095 93.1505 40.8095 94.8458C40.8095 96.5411 40.2587 97.9513 39.1572 99.0763C38.0556 100.201 36.6533 100.764 34.9501 100.764C33.247 100.764 31.8447 100.201 30.7431 99.0763ZM37.3408 97.4708C37.9736 96.7833 38.29 95.9083 38.29 94.8458C38.29 93.7833 37.9736 92.9083 37.3408 92.2208C36.7079 91.5333 35.9111 91.1896 34.9501 91.1896C33.9892 91.1896 33.1923 91.5333 32.5595 92.2208C31.9345 92.9083 31.622 93.7833 31.622 94.8458C31.622 95.9083 31.9345 96.7833 32.5595 97.4708C33.1923 98.1505 33.9892 98.4903 34.9501 98.4903C35.9111 98.4903 36.7079 98.1505 37.3408 97.4708ZM44.2314 100.529V91.3185H41.7353V89.1505H44.2314V87.3341C44.2314 86.1857 44.6025 85.2599 45.3447 84.5568C46.0869 83.8458 47.079 83.4903 48.3212 83.4903C49.6181 83.4903 50.6064 83.8224 51.2861 84.4864C51.9658 85.1427 52.3056 85.9943 52.3056 87.0411C52.3056 87.3302 52.2978 87.5138 52.2822 87.5919H49.8798C49.9111 87.3732 49.9267 87.213 49.9267 87.1114C49.9267 86.6661 49.7861 86.3107 49.5048 86.045C49.2236 85.7794 48.829 85.6466 48.3212 85.6466C47.8369 85.6466 47.454 85.8028 47.1728 86.1153C46.8915 86.42 46.7509 86.8497 46.7509 87.4044V89.1505H49.8798V91.3185H46.7509V100.529H44.2314ZM59.5712 96.9318V91.3185H57.2861V89.1505H59.5712V85.5294H62.0908V89.1505H66.4033V91.3185H62.0908V97.0489C62.0908 97.5489 62.2236 97.9357 62.4892 98.2091C62.7626 98.4747 63.1064 98.6075 63.5204 98.6075C64.0048 98.6075 64.3759 98.4513 64.6337 98.1388C64.8915 97.8263 65.0439 97.3419 65.0908 96.6857L67.4814 97.1661C67.3798 98.3068 66.9892 99.1935 66.3095 99.8263C65.6298 100.451 64.7431 100.764 63.6494 100.764C62.329 100.764 61.3173 100.428 60.6142 99.756C59.9189 99.0841 59.5712 98.1427 59.5712 96.9318ZM72.04 100.529H69.5204V83.7247H72.04V91.4825C72.3369 90.6778 72.829 90.0489 73.5165 89.5958C74.2119 89.1427 75.0322 88.9161 75.9775 88.9161C77.2119 88.9161 78.1962 89.2989 78.9306 90.0646C79.665 90.8224 80.0322 91.8146 80.0322 93.0411V100.529H77.5126V93.756C77.5126 92.8575 77.29 92.1739 76.8447 91.7052C76.3994 91.2364 75.7509 91.0021 74.8994 91.0021C74.0712 91.0021 73.3876 91.3224 72.8486 91.963C72.3095 92.5958 72.04 93.4357 72.04 94.4825V100.529ZM91.4462 96.2052L93.6025 97.0489C93.1962 98.2521 92.5517 99.1739 91.6689 99.8146C90.7861 100.447 89.6806 100.764 88.3525 100.764C86.5869 100.764 85.1611 100.221 84.0751 99.1349C82.9892 98.0411 82.4462 96.5841 82.4462 94.7638C82.4462 93.0997 82.9579 91.7091 83.9814 90.5919C85.0126 89.4747 86.3486 88.9161 87.9892 88.9161C89.497 88.9161 90.7275 89.3732 91.6806 90.2872C92.6415 91.1935 93.122 92.4083 93.122 93.9318C93.122 94.3224 93.0829 94.7599 93.0048 95.2443H84.9658C84.9658 96.3458 85.3017 97.1857 85.9736 97.7638C86.6767 98.3263 87.4775 98.6075 88.3759 98.6075C89.1884 98.6075 89.8564 98.4044 90.3798 97.9982C90.9111 97.5841 91.2665 96.9864 91.4462 96.2052ZM84.9658 93.5685H90.6025L90.6259 93.3575C90.6259 92.6622 90.3759 92.1075 89.8759 91.6935C89.3837 91.2794 88.747 91.0724 87.9658 91.0724C87.1767 91.0724 86.5048 91.2989 85.9501 91.7521C85.3954 92.2052 85.0673 92.8107 84.9658 93.5685ZM101.63 89.1505H104.149V90.756C104.688 89.5294 105.688 88.9161 107.149 88.9161C107.876 88.9161 108.501 89.1193 109.024 89.5255C109.548 89.9239 109.923 90.5138 110.149 91.295C110.431 90.5138 110.856 89.9239 111.427 89.5255C112.005 89.1193 112.661 88.9161 113.395 88.9161C114.474 88.9161 115.321 89.2599 115.938 89.9474C116.563 90.6271 116.876 91.5958 116.876 92.8536V100.529H114.356V93.4044C114.356 92.7091 114.177 92.1622 113.817 91.7638C113.466 91.3653 113.005 91.1661 112.435 91.1661C111.864 91.1661 111.399 91.3653 111.04 91.7638C110.688 92.1622 110.513 92.7091 110.513 93.4044V100.529H107.993V93.4044C107.993 92.7091 107.813 92.1622 107.454 91.7638C107.102 91.3653 106.642 91.1661 106.071 91.1661C105.485 91.1661 105.017 91.381 104.665 91.8107C104.321 92.2403 104.149 92.8497 104.149 93.6388V100.529H101.63V89.1505ZM120.907 99.0763C119.813 97.9513 119.267 96.5411 119.267 94.8458C119.267 93.1505 119.813 91.7403 120.907 90.6153C122.009 89.4825 123.411 88.9161 125.114 88.9161C126.817 88.9161 128.22 89.4825 129.321 90.6153C130.423 91.7403 130.974 93.1505 130.974 94.8458C130.974 96.5411 130.423 97.9513 129.321 99.0763C128.22 100.201 126.817 100.764 125.114 100.764C123.411 100.764 122.009 100.201 120.907 99.0763ZM127.505 97.4708C128.138 96.7833 128.454 95.9083 128.454 94.8458C128.454 93.7833 128.138 92.9083 127.505 92.2208C126.872 91.5333 126.075 91.1896 125.114 91.1896C124.153 91.1896 123.356 91.5333 122.724 92.2208C122.099 92.9083 121.786 93.7833 121.786 94.8458C121.786 95.9083 122.099 96.7833 122.724 97.4708C123.356 98.1505 124.153 98.4903 125.114 98.4903C126.075 98.4903 126.872 98.1505 127.505 97.4708ZM135.884 100.529H133.364V89.1505H135.884V90.8146C136.642 89.5489 137.833 88.9161 139.458 88.9161C140.661 88.9161 141.626 89.2911 142.352 90.0411C143.079 90.7911 143.442 91.8068 143.442 93.088V100.529H140.923V93.9552C140.923 93.0489 140.712 92.3419 140.29 91.8341C139.868 91.3263 139.294 91.0724 138.567 91.0724C137.786 91.0724 137.142 91.3536 136.634 91.9161C136.134 92.4786 135.884 93.2364 135.884 94.1896V100.529ZM147.509 96.9318V91.3185H145.224V89.1505H147.509V85.5294H150.028V89.1505H154.341V91.3185H150.028V97.0489C150.028 97.5489 150.161 97.9357 150.427 98.2091C150.7 98.4747 151.044 98.6075 151.458 98.6075C151.942 98.6075 152.313 98.4513 152.571 98.1388C152.829 97.8263 152.981 97.3419 153.028 96.6857L155.419 97.1661C155.317 98.3068 154.927 99.1935 154.247 99.8263C153.567 100.451 152.681 100.764 151.587 100.764C150.267 100.764 149.255 100.428 148.552 99.756C147.856 99.0841 147.509 98.1427 147.509 96.9318ZM159.977 100.529H157.458V83.7247H159.977V91.4825C160.274 90.6778 160.767 90.0489 161.454 89.5958C162.149 89.1427 162.97 88.9161 163.915 88.9161C165.149 88.9161 166.134 89.2989 166.868 90.0646C167.602 90.8224 167.97 91.8146 167.97 93.0411V100.529H165.45V93.756C165.45 92.8575 165.227 92.1739 164.782 91.7052C164.337 91.2364 163.688 91.0021 162.837 91.0021C162.009 91.0021 161.325 91.3224 160.786 91.963C160.247 92.5958 159.977 93.4357 159.977 94.4825V100.529Z" fill="black"/>
<rect x="26.8824" y="0.882353" width="144.706" height="68.8235" rx="34.4118" fill="#FF90E8"/>
<rect x="26.8824" y="0.882353" width="144.706" height="68.8235" rx="34.4118" stroke="black" stroke-width="1.76471"/>
<path d="M58.0087 33.8918C58.0087 35.8215 58.5361 37.3449 59.5908 38.4621C60.6454 39.5793 62.0361 40.1379 63.7626 40.1379C65.5126 40.1379 66.9033 39.634 67.9345 38.6261C68.9658 37.6183 69.6142 36.3605 69.8798 34.8527L72.2822 35.8136C71.8369 37.8215 70.8642 39.4426 69.3642 40.6769C67.872 41.9113 66.0048 42.5285 63.7626 42.5285C62.1142 42.5519 60.6337 42.1847 59.3212 41.4269C58.0087 40.6613 56.997 39.6183 56.2861 38.298C55.5751 36.9777 55.2275 35.509 55.2431 33.8918C55.2197 32.7043 55.4267 31.5754 55.8642 30.5051C56.3095 29.4269 56.9111 28.5011 57.6689 27.7277C58.4267 26.9543 59.3369 26.3449 60.3994 25.8996C61.4697 25.4465 62.5908 25.2316 63.7626 25.2551C64.8017 25.2551 65.7587 25.4074 66.6337 25.7121C67.5087 26.009 68.2509 26.4191 68.8603 26.9426C69.4775 27.466 69.9931 28.0636 70.4072 28.7355C70.8212 29.3996 71.1259 30.1183 71.3212 30.8918L68.9189 31.9699C68.6611 30.6652 68.0829 29.6222 67.1845 28.841C66.2939 28.0519 65.1533 27.6574 63.7626 27.6574C62.0986 27.6574 60.7236 28.2316 59.6376 29.3801C58.5517 30.5285 58.0087 32.0324 58.0087 33.8918ZM74.5908 30.9152H77.1103V32.5793C77.3369 31.9699 77.6845 31.5011 78.1533 31.173C78.6298 30.8449 79.204 30.6808 79.8759 30.6808C80.8134 30.6808 81.5947 30.9933 82.2197 31.6183C82.8447 32.2199 83.1572 32.9777 83.1572 33.8918C83.1572 34.423 83.1025 34.9035 82.9931 35.3332H80.497C80.5595 35.0519 80.5908 34.7316 80.5908 34.3722C80.5908 33.9269 80.4306 33.5597 80.1103 33.2707C79.7978 32.9816 79.3994 32.8371 78.915 32.8371C78.3681 32.8371 77.9306 33.009 77.6025 33.3527C77.2744 33.6965 77.1103 34.1574 77.1103 34.7355V42.2941H74.5908V30.9152ZM93.6806 37.9699L95.8369 38.8136C95.4306 40.0168 94.7861 40.9386 93.9033 41.5793C93.0204 42.2121 91.915 42.5285 90.5869 42.5285C88.8212 42.5285 87.3954 41.9855 86.3095 40.8996C85.2236 39.8058 84.6806 38.3488 84.6806 36.5285C84.6806 34.8644 85.1923 33.4738 86.2158 32.3566C87.247 31.2394 88.5829 30.6808 90.2236 30.6808C91.7314 30.6808 92.9619 31.1379 93.915 32.0519C94.8759 32.9582 95.3564 34.173 95.3564 35.6965C95.3564 36.0871 95.3173 36.5246 95.2392 37.009H87.2001C87.2001 38.1105 87.5361 38.9504 88.2079 39.5285C88.9111 40.091 89.7119 40.3722 90.6103 40.3722C91.4228 40.3722 92.0908 40.1691 92.6142 39.7629C93.1454 39.3488 93.5009 38.7511 93.6806 37.9699ZM87.2001 35.3332H92.8369L92.8603 35.1222C92.8603 34.4269 92.6103 33.8722 92.1103 33.4582C91.6181 33.0441 90.9814 32.8371 90.2001 32.8371C89.4111 32.8371 88.7392 33.0636 88.1845 33.5168C87.6298 33.9699 87.3017 34.5754 87.2001 35.3332ZM97.7353 39.0597C97.7353 37.8644 98.1298 36.9582 98.9189 36.341C99.7158 35.716 100.77 35.4035 102.083 35.4035C102.778 35.4035 103.45 35.4855 104.099 35.6496L105.294 35.9308V35.0988C105.294 34.3566 105.048 33.7746 104.556 33.3527C104.063 32.9308 103.431 32.7199 102.657 32.7199C101.915 32.7199 101.302 32.923 100.817 33.3293C100.341 33.7277 100.032 34.2746 99.8915 34.9699L97.6181 34.3722C97.8759 33.2316 98.4384 32.3332 99.3056 31.6769C100.173 31.0129 101.29 30.6808 102.657 30.6808C104.274 30.6808 105.517 31.0754 106.384 31.8644C107.259 32.6535 107.696 33.7707 107.696 35.216V42.2941H105.294V40.3722C105.036 41.0363 104.579 41.5636 103.923 41.9543C103.274 42.3371 102.462 42.5285 101.485 42.5285C100.493 42.5285 99.6181 42.2121 98.8603 41.5793C98.1103 40.9386 97.7353 40.0988 97.7353 39.0597ZM105.294 37.9699V37.8527L104.38 37.6183C103.56 37.4074 102.931 37.3019 102.493 37.3019C101.837 37.3019 101.317 37.4308 100.935 37.6886C100.56 37.9386 100.372 38.3136 100.372 38.8136C100.372 39.2824 100.552 39.6613 100.911 39.9504C101.27 40.2316 101.798 40.3722 102.493 40.3722C103.329 40.3722 104.005 40.1574 104.52 39.7277C105.036 39.298 105.294 38.7121 105.294 37.9699ZM111.329 38.6965V33.0832H109.044V30.9152H111.329V27.2941H113.849V30.9152H118.161V33.0832H113.849V38.8136C113.849 39.3136 113.981 39.7004 114.247 39.9738C114.52 40.2394 114.864 40.3722 115.278 40.3722C115.763 40.3722 116.134 40.216 116.392 39.9035C116.649 39.591 116.802 39.1066 116.849 38.4504L119.239 38.9308C119.138 40.0715 118.747 40.9582 118.067 41.591C117.388 42.216 116.501 42.5285 115.407 42.5285C114.087 42.5285 113.075 42.1926 112.372 41.5207C111.677 40.8488 111.329 39.9074 111.329 38.6965ZM121.923 40.841C120.829 39.716 120.282 38.3058 120.282 36.6105C120.282 34.9152 120.829 33.5051 121.923 32.3801C123.024 31.2472 124.427 30.6808 126.13 30.6808C127.833 30.6808 129.235 31.2472 130.337 32.3801C131.438 33.5051 131.989 34.9152 131.989 36.6105C131.989 38.3058 131.438 39.716 130.337 40.841C129.235 41.966 127.833 42.5285 126.13 42.5285C124.427 42.5285 123.024 41.966 121.923 40.841ZM128.52 39.2355C129.153 38.548 129.47 37.673 129.47 36.6105C129.47 35.548 129.153 34.673 128.52 33.9855C127.888 33.298 127.091 32.9543 126.13 32.9543C125.169 32.9543 124.372 33.298 123.739 33.9855C123.114 34.673 122.802 35.548 122.802 36.6105C122.802 37.673 123.114 38.548 123.739 39.2355C124.372 39.9152 125.169 40.2551 126.13 40.2551C127.091 40.2551 127.888 39.9152 128.52 39.2355ZM134.38 30.9152H136.899V32.5793C137.126 31.9699 137.474 31.5011 137.942 31.173C138.419 30.8449 138.993 30.6808 139.665 30.6808C140.602 30.6808 141.384 30.9933 142.009 31.6183C142.634 32.2199 142.946 32.9777 142.946 33.8918C142.946 34.423 142.892 34.9035 142.782 35.3332H140.286C140.349 35.0519 140.38 34.7316 140.38 34.3722C140.38 33.9269 140.22 33.5597 139.899 33.2707C139.587 32.9816 139.188 32.8371 138.704 32.8371C138.157 32.8371 137.72 33.009 137.392 33.3527C137.063 33.6965 136.899 34.1574 136.899 34.7355V42.2941H134.38V30.9152Z" fill="black"/>
</g>
<defs>
<filter id="filter0_d_616_326" x="0" y="0" width="205.529" height="127.059" filterUnits="userSpaceOnUse" color-interpolation-filters="sRGB">
<feFlood flood-opacity="0" result="BackgroundImageFix"/>
<feColorMatrix in="SourceAlpha" type="matrix" values="0 0 0 0 0 0 0 0 0 0 0 0 0 0 0 0 0 0 127 0" result="hardAlpha"/>
<feOffset dx="7.05882" dy="7.05882"/>
<feComposite in2="hardAlpha" operator="out"/>
<feColorMatrix type="matrix" values="0 0 0 0 0 0 0 0 0 0 0 0 0 0 0 0 0 0 1 0"/>
<feBlend mode="normal" in2="BackgroundImageFix" result="effect1_dropShadow_616_326"/>
<feBlend mode="normal" in="SourceGraphic" in2="effect1_dropShadow_616_326" result="shape"/>
</filter>
</defs>
</svg>
