<svg width="300" height="40" viewBox="0 0 300 40" fill="none" xmlns="http://www.w3.org/2000/svg">
<g clip-path="url(#clip0_690_91)">
<path d="M178.312 0.0449829C172.114 0.0449829 166.055 5.52055 165.359 13.4322V0.697213H156.458V39.0965H165.468V20.5097C165.468 15.3031 169.25 7.95859 178.312 7.95859V0.0449829Z" fill="black"/>
<path d="M272.817 32.9491V6.64098H278.036C284.995 6.64098 290.65 10.8842 290.65 19.5829C290.65 28.2815 284.995 32.9491 278.036 32.9491H272.817ZM263.9 39.1018H279.124C288.475 39.1018 300 33.1613 300 19.5829C300 6.21666 288.475 0.700439 279.124 0.700439H263.9V39.1018Z" fill="black"/>
<path d="M229.785 20.0077C229.785 13.0064 233.482 7.27799 239.57 7.27799C245.442 7.27799 248.704 13.0064 248.704 20.0077C248.704 27.0091 245.442 32.7374 239.57 32.7374C233.482 32.7374 229.785 27.0091 229.785 20.0077ZM220.651 20.432C220.651 31.8888 226.74 39.951 236.309 39.951C243.267 39.951 247.399 35.4956 249.574 28.282V39.1024H258.488V0.70097H249.574V10.8847C247.617 4.09556 243.485 0.0644836 236.962 0.0644836C227.175 0.0644836 220.651 8.76313 220.651 20.432Z" fill="black"/>
<path d="M17.6148 39.951C6.52398 39.951 0 31.2523 0 20.432C0 9.18746 7.17638 0.0644836 20.8767 0.0644836C35.012 0.0644836 39.7964 9.39961 40.0137 14.7036H29.7929C29.5754 11.7334 26.9658 7.27799 20.6592 7.27799C13.9178 7.27799 9.56851 13.0064 9.56851 20.0077C9.56851 27.0091 13.9178 32.7374 20.6592 32.7374C26.7483 32.7374 29.3579 28.0699 30.4452 23.4023H20.6592V19.5833H41.1935V39.1024H32.185V26.7969C31.5326 31.2523 28.7055 39.951 17.6148 39.951Z" fill="black"/>
<path d="M59.4588 39.9505C50.9776 39.9505 45.7585 34.4342 45.7585 23.4018V0.700439H54.892V23.4018C54.892 29.1301 57.719 31.8883 62.5032 31.8883C71.8544 31.8883 75.3338 20.6436 75.3338 12.7937V0.700439H84.4673V39.1018H75.5512V24.8869C73.8115 32.7369 69.0273 39.9505 59.4588 39.9505Z" fill="black"/>
<path d="M139.047 0.044342C131.255 0.044342 126.339 7.3883 124.734 14.1787C124.46 5.07874 119.873 0.044342 112.534 0.044342C106.193 0.044342 100.31 5.56107 98.7825 14.2886V0.697588H89.8788V39.0998H98.8966V25.3328C98.8966 21.9197 100.355 7.91345 109.433 7.91345C115.314 7.91345 115.927 13.0886 115.927 20.1627V39.0998H124.94V25.3328C124.94 21.9197 126.459 7.91345 135.537 7.91345C141.413 7.91345 142.02 13.0886 142.02 20.1627V39.0998H151.046V16.3851C151.087 5.48791 147.143 0.044342 139.047 0.044342Z" fill="black"/>
<path d="M197.659 0.044342C185.985 0.044342 178.075 8.97487 178.075 19.9976C178.075 32.1431 185.598 39.9507 197.659 39.9507C209.333 39.9507 217.384 31.0204 217.384 19.9976C217.384 7.85218 209.715 0.044342 197.659 0.044342ZM197.659 33.1534C190.863 33.1534 186.461 27.54 186.461 19.9976C186.461 12.4552 190.878 6.84162 197.659 6.84162C204.439 6.84162 208.68 12.4552 208.68 19.9976C208.68 27.54 204.435 33.1534 197.659 33.1534Z" fill="black"/>
</g>
<defs>
<clipPath id="clip0_690_91">
<rect width="300" height="40" fill="white"/>
</clipPath>
</defs>
</svg>
